<svg width="576" height="512" xmlns="http://www.w3.org/2000/svg" aria-hidden="true" focusable="false" data-prefix="fas" data-icon="gem" class="svg-inline--fa fa-gem fa-w-18" role="img">
 <g>
  <title>Layer 1</title>
  <path fill="#99202c" d="m486.64943,0l90.5,160l-101.1,0l-69.2,-160l79.8,0zm-128,0l69.2,160l-277.4,0l69.2,-160l139,0zm-267,0l79.8,0l-69.2,160l-101.1,0l90.5,-160zm-90.5,192l100.7,0l123,251.7c1.5,3.1 -2.7,5.9 -5,3.3l-218.7,-255zm148.2,0l279.6,0l-137,318.2c-1,2.4 -4.5,2.4 -5.5,0l-137.1,-318.2zm204.1,251.7l123,-251.7l100.7,0l-218.7,254.9c-2.3,2.7 -6.5,-0.1 -5,-3.2z" id="svg_1"/>
  <path id="svg_39" d="m234.30398,18.7036l109.95284,0l50.30864,125.15295l-211.60924,0l51.34776,-125.15295z" opacity="undefined" stroke-width="5" stroke="null" fill="#eb2f42"/>
  <path id="svg_40" d="m104.03488,20.10465l35.62134,0l-54.72616,120.89232c-13.93298,0 -32.49916,0 -46.43214,0l65.53696,-120.89232z" opacity="undefined" stroke-width="5" stroke="null" fill="#eb2f42"/>
  <path id="svg_41" d="m439.08219,18.23549l35.62134,0l66.76938,123.22877c-13.93298,0 -32.49916,0 -46.43214,0l-55.95858,-123.22877z" opacity="undefined" stroke-width="5" stroke="null" fill="#eb2f42"/>
 </g>

</svg>